<svg width="133" height="27" viewBox="0 0 133 27" fill="none" xmlns="http://www.w3.org/2000/svg">
<path d="M10.052 12.86H19.448V24.092C18.44 24.932 17.228 25.544 15.812 25.928C14.42 26.312 13.04 26.504 11.672 26.504C10.064 26.504 8.564 26.252 7.172 25.748C5.804 25.244 4.616 24.464 3.608 23.408C2.6 22.328 1.808 20.96 1.232 19.304C0.656 17.648 0.368 15.68 0.368 13.4C0.368 11.024 0.704 9.008 1.376 7.352C2.072 5.672 2.972 4.316 4.076 3.284C5.204 2.228 6.464 1.472 7.856 1.016C9.248 0.535999 10.664 0.295998 12.104 0.295998C13.544 0.295998 14.804 0.403998 15.884 0.619998C16.988 0.835999 17.864 1.064 18.512 1.304L17.504 5.444C16.904 5.204 16.232 5.024 15.488 4.904C14.744 4.76 13.796 4.688 12.644 4.688C11.612 4.688 10.664 4.844 9.8 5.156C8.936 5.468 8.18 5.984 7.532 6.704C6.908 7.4 6.416 8.3 6.056 9.404C5.72 10.508 5.552 11.852 5.552 13.436C5.552 14.948 5.72 16.256 6.056 17.36C6.392 18.44 6.86 19.34 7.46 20.06C8.06 20.756 8.756 21.272 9.548 21.608C10.364 21.944 11.228 22.112 12.14 22.112C12.764 22.112 13.376 22.04 13.976 21.896C14.576 21.728 15.08 21.488 15.488 21.176V16.424L10.052 15.848V12.86ZM22.3055 13.4C22.3055 9.2 23.2295 5.972 25.0775 3.716C26.9255 1.436 29.5655 0.295998 32.9975 0.295998C34.7975 0.295998 36.3695 0.607999 37.7135 1.232C39.0575 1.856 40.1735 2.744 41.0615 3.896C41.9495 5.048 42.6095 6.428 43.0415 8.036C43.4735 9.644 43.6895 11.432 43.6895 13.4C43.6895 17.6 42.7535 20.84 40.8815 23.12C39.0335 25.376 36.4055 26.504 32.9975 26.504C31.1735 26.504 29.5895 26.192 28.2455 25.568C26.9015 24.944 25.7855 24.056 24.8975 22.904C24.0335 21.752 23.3855 20.372 22.9535 18.764C22.5215 17.156 22.3055 15.368 22.3055 13.4ZM27.4895 13.4C27.4895 14.672 27.5975 15.848 27.8135 16.928C28.0295 17.984 28.3535 18.896 28.7855 19.664C29.2415 20.432 29.8175 21.032 30.5135 21.464C31.2095 21.896 32.0375 22.112 32.9975 22.112C34.7495 22.112 36.1055 21.428 37.0655 20.06C38.0255 18.692 38.5055 16.472 38.5055 13.4C38.5055 12.176 38.3975 11.036 38.1815 9.98C37.9895 8.924 37.6775 8 37.2455 7.208C36.8135 6.416 36.2495 5.804 35.5535 5.372C34.8575 4.916 34.0055 4.688 32.9975 4.688C31.2455 4.688 29.8895 5.396 28.9295 6.812C27.9695 8.204 27.4895 10.4 27.4895 13.4ZM46.9987 13.58H56.0347V17.72H46.9987V13.58ZM75.5481 5.192H68.2041V26H63.2721V5.192H55.8921V0.799998H75.5481V5.192ZM81.6338 16.64L73.3538 0.799998H79.2218L83.8298 10.268L84.3338 12.932H84.5138L85.0538 10.196L89.5178 0.799998H94.8098L86.5658 16.604V26H81.6338V16.64ZM96.8905 1.052C97.8985 0.859999 99.0025 0.715999 100.202 0.619998C101.426 0.499999 102.638 0.439999 103.838 0.439999C105.086 0.439999 106.334 0.547999 107.582 0.763999C108.854 0.955999 109.994 1.364 111.002 1.988C112.01 2.588 112.826 3.44 113.45 4.544C114.098 5.624 114.422 7.04 114.422 8.792C114.422 10.376 114.146 11.72 113.594 12.824C113.042 13.904 112.31 14.792 111.398 15.488C110.486 16.184 109.442 16.688 108.266 17C107.114 17.312 105.914 17.468 104.666 17.468C104.546 17.468 104.354 17.468 104.09 17.468C103.826 17.468 103.55 17.468 103.262 17.468C102.974 17.444 102.686 17.42 102.398 17.396C102.134 17.372 101.942 17.348 101.822 17.324V26H96.8905V1.052ZM104.234 4.688C103.754 4.688 103.298 4.712 102.866 4.76C102.434 4.784 102.086 4.82 101.822 4.868V13.04C101.918 13.064 102.062 13.088 102.254 13.112C102.446 13.136 102.65 13.16 102.866 13.184C103.082 13.184 103.286 13.184 103.478 13.184C103.694 13.184 103.85 13.184 103.946 13.184C104.594 13.184 105.23 13.124 105.854 13.004C106.502 12.884 107.078 12.668 107.582 12.356C108.086 12.02 108.482 11.564 108.77 10.988C109.082 10.412 109.238 9.656 109.238 8.72C109.238 7.928 109.094 7.28 108.806 6.776C108.518 6.248 108.134 5.828 107.654 5.516C107.198 5.204 106.67 4.988 106.07 4.868C105.47 4.748 104.858 4.688 104.234 4.688ZM117.492 0.799998H132.432V5.192H122.424V11.06H131.532V15.452H122.424V21.608H132.612V26H117.492V0.799998Z" fill="#E42E7B"/>
</svg>
